<svg id="Layer_1" data-name="Layer 1" xmlns="http://www.w3.org/2000/svg" viewBox="0 0 329.56 114.4"><defs><style>.cls-1{fill:none;stroke:#ebb320;stroke-miterlimit:10;stroke-width:12px;}.cls-2{fill:#58595b;}.cls-3{fill:#ebb320;}</style></defs><polygon class="cls-1" points="6 106.71 92 106.71 91.99 35.17 49 7.19 6 36.06 6 106.71"/><path class="cls-2" d="M254.31,385.92l-5.74-21.28-5.81,21.28q-.67,2.43-1.08,3.48a4.69,4.69,0,0,1-1.39,1.89,3.94,3.94,0,0,1-2.64.83,4.33,4.33,0,0,1-2.19-.49,3.79,3.79,0,0,1-1.4-1.41,9.09,9.09,0,0,1-.87-2.15c-.22-.83-.43-1.6-.6-2.31l-5.91-23.9a13.71,13.71,0,0,1-.53-3.18,3.1,3.1,0,0,1,1-2.32,3.28,3.28,0,0,1,2.39-.95,2.72,2.72,0,0,1,2.64,1.26,14.34,14.34,0,0,1,1.19,3.66L238,381.06l5.2-19.4a34.41,34.41,0,0,1,1-3.39,5,5,0,0,1,1.51-2,4.36,4.36,0,0,1,2.83-.85,4.13,4.13,0,0,1,2.82.89,4.85,4.85,0,0,1,1.39,1.92c.26.7.61,1.84,1,3.44l5.26,19.4,4.65-20.73a23.56,23.56,0,0,1,.64-2.54,4.09,4.09,0,0,1,1-1.65,3,3,0,0,1,2.14-.73,3.35,3.35,0,0,1,2.39.94,3.1,3.1,0,0,1,1,2.33,15.52,15.52,0,0,1-.53,3.18l-5.91,23.9c-.41,1.61-.74,2.79-1,3.54a4.78,4.78,0,0,1-1.35,2,4.71,4.71,0,0,1-5.34,0,4.52,4.52,0,0,1-1.38-1.85C255.14,388.76,254.78,387.59,254.31,385.92Z" transform="translate(-116.6 -280.39)"/><path class="cls-3" d="M278.57,362.17a3.46,3.46,0,0,1-2.36-.85,3.3,3.3,0,0,1,0-4.71,3.4,3.4,0,0,1,2.34-.9,3.47,3.47,0,0,1,2.28.82,3,3,0,0,1,1,2.4,3,3,0,0,1-1,2.38A3.35,3.35,0,0,1,278.57,362.17Z" transform="translate(-116.6 -280.39)"/><path class="cls-2" d="M281.84,369v19.1a4.28,4.28,0,0,1-.94,3,3.16,3.16,0,0,1-2.4,1,3,3,0,0,1-2.36-1,4.35,4.35,0,0,1-.91-3V369.19a4.22,4.22,0,0,1,.91-2.95,3,3,0,0,1,2.36-1,3.17,3.17,0,0,1,2.4,1A3.83,3.83,0,0,1,281.84,369Z" transform="translate(-116.6 -280.39)"/><path class="cls-2" d="M310,383.48a8.06,8.06,0,0,1-1.33,4.68,8.17,8.17,0,0,1-3.93,3,17.69,17.69,0,0,1-6.34,1,15.4,15.4,0,0,1-6.1-1.09,8.86,8.86,0,0,1-3.75-2.72,5.46,5.46,0,0,1-1.21-3.28,2.58,2.58,0,0,1,.77-1.87,2.68,2.68,0,0,1,2-.77,2.28,2.28,0,0,1,1.6.51,5.54,5.54,0,0,1,1.07,1.43,6.33,6.33,0,0,0,6.29,3.51,5.58,5.58,0,0,0,3.26-.89,2.48,2.48,0,0,0,1.27-2,2.75,2.75,0,0,0-1.32-2.54,16.65,16.65,0,0,0-4.34-1.53,34.57,34.57,0,0,1-5.56-1.78,9.24,9.24,0,0,1-3.43-2.45,5.67,5.67,0,0,1-1.28-3.76,6.62,6.62,0,0,1,1.18-3.75,8.18,8.18,0,0,1,3.5-2.82,13.5,13.5,0,0,1,5.59-1.05,18.14,18.14,0,0,1,4.61.53,11.29,11.29,0,0,1,3.41,1.43,7.13,7.13,0,0,1,2.09,2,4,4,0,0,1,.71,2.13,2.47,2.47,0,0,1-.76,1.87,3,3,0,0,1-2.17.72,2.62,2.62,0,0,1-1.73-.58,11.38,11.38,0,0,1-1.64-1.74,6,6,0,0,0-1.76-1.55,5.55,5.55,0,0,0-2.76-.58,5.38,5.38,0,0,0-3,.76,2.23,2.23,0,0,0-1.19,1.9,2.05,2.05,0,0,0,.87,1.71,7.35,7.35,0,0,0,2.35,1.1c1,.29,2.34.65,4.07,1.07a21.88,21.88,0,0,1,5,1.79,8.28,8.28,0,0,1,3,2.46A5.43,5.43,0,0,1,310,383.48Z" transform="translate(-116.6 -280.39)"/><path class="cls-2" d="M334,380.31H321.07a8.7,8.7,0,0,0,.91,4,6,6,0,0,0,5.58,3.46,7.81,7.81,0,0,0,2.17-.28,6.89,6.89,0,0,0,1.9-.87,14.62,14.62,0,0,0,1.69-1.27c.52-.45,1.19-1.07,2-1.84a2.17,2.17,0,0,1,1.45-.44,2.41,2.41,0,0,1,1.65.56,2,2,0,0,1,.63,1.57,4.39,4.39,0,0,1-.7,2.1,8.48,8.48,0,0,1-2.12,2.3,12.38,12.38,0,0,1-3.56,1.83,15.46,15.46,0,0,1-4.93.72c-4.24,0-7.55-1.21-9.9-3.63s-3.54-5.7-3.54-9.85a16.46,16.46,0,0,1,.87-5.44,12.1,12.1,0,0,1,2.55-4.3,11.06,11.06,0,0,1,4.11-2.75,15,15,0,0,1,5.43-.95,12.82,12.82,0,0,1,6.64,1.63,10.75,10.75,0,0,1,4.16,4.23,11.07,11.07,0,0,1,1.38,5.28c0,1.66-.48,2.74-1.43,3.23A9,9,0,0,1,334,380.31Zm-12.93-3.76h12a8.05,8.05,0,0,0-1.82-5.07,5.48,5.48,0,0,0-4.18-1.68,5.29,5.29,0,0,0-4.06,1.71A8.47,8.47,0,0,0,321.07,376.55Z" transform="translate(-116.6 -280.39)"/><path class="cls-3" d="M360.63,391.52H349.79a4.51,4.51,0,0,1-3.36-1,4.75,4.75,0,0,1-1-3.36V360.43a4.63,4.63,0,0,1,1-3.38,4.53,4.53,0,0,1,3.33-1h11.5a28,28,0,0,1,4.4.31,9.38,9.38,0,0,1,3.35,1.22,8.72,8.72,0,0,1,2.22,1.9,8.22,8.22,0,0,1,1.48,2.54,8.49,8.49,0,0,1,.51,2.94q0,5.32-5.33,7.8,7,2.22,7,8.67a9.72,9.72,0,0,1-1.53,5.36,9.08,9.08,0,0,1-4.11,3.52,14.52,14.52,0,0,1-3.73,1A37.27,37.27,0,0,1,360.63,391.52Zm-8-30.1v9.18h6.59a13.19,13.19,0,0,0,4.15-.51,4,4,0,0,0,2.24-1.94,4.38,4.38,0,0,0,.6-2.27c0-1.8-.63-3-1.91-3.58a14.64,14.64,0,0,0-5.84-.88Zm7.48,14.34h-7.48v10.36h7.72q7.29,0,7.29-5.26a4.26,4.26,0,0,0-1.89-3.89A10.55,10.55,0,0,0,360.1,375.76Z" transform="translate(-116.6 -280.39)"/><path class="cls-3" d="M405.43,378.68a15.7,15.7,0,0,1-.92,5.45,11.69,11.69,0,0,1-6.83,7,14.66,14.66,0,0,1-5.45.95,14.43,14.43,0,0,1-5.4-1,11.95,11.95,0,0,1-6.81-7,16.78,16.78,0,0,1,0-10.93,11.81,11.81,0,0,1,2.64-4.26,11.59,11.59,0,0,1,4.16-2.73,14.65,14.65,0,0,1,5.4-.95,14.81,14.81,0,0,1,5.45,1,11.69,11.69,0,0,1,6.84,7A15.53,15.53,0,0,1,405.43,378.68Zm-6.63,0a10,10,0,0,0-1.78-6.29,5.8,5.8,0,0,0-4.79-2.25,5.9,5.9,0,0,0-3.41,1,6.39,6.39,0,0,0-2.28,3,13.42,13.42,0,0,0,0,9.1,6.48,6.48,0,0,0,2.25,3,6.23,6.23,0,0,0,8.24-1.24A9.9,9.9,0,0,0,398.8,378.68Z" transform="translate(-116.6 -280.39)"/><path class="cls-3" d="M439.65,387.11a38.88,38.88,0,0,0,3.43,2.07,11.72,11.72,0,0,1,2.47,1.6,2.24,2.24,0,0,1,.61,1.68,2.28,2.28,0,0,1-.72,1.55,2.25,2.25,0,0,1-1.73.78,5.05,5.05,0,0,1-2-.53,23.2,23.2,0,0,1-2.76-1.55c-1.06-.68-2.22-1.47-3.48-2.38a18.73,18.73,0,0,1-8.62,1.79,19.71,19.71,0,0,1-7.42-1.32,14.48,14.48,0,0,1-5.51-3.8,16.29,16.29,0,0,1-3.35-5.89,23.68,23.68,0,0,1-1.13-7.44,23,23,0,0,1,1.17-7.5,16.17,16.17,0,0,1,3.41-5.82,14.65,14.65,0,0,1,5.42-3.66,19.46,19.46,0,0,1,7.26-1.28,19,19,0,0,1,9.48,2.24,14.6,14.6,0,0,1,6,6.37,21.83,21.83,0,0,1,2,9.7Q444.22,382.17,439.65,387.11ZM434,383.19a11,11,0,0,0,2.22-4.07,18.62,18.62,0,0,0,.71-5.45,16.6,16.6,0,0,0-1.26-6.75,9.39,9.39,0,0,0-3.59-4.33,10,10,0,0,0-5.37-1.46,9.73,9.73,0,0,0-4,.81,8.78,8.78,0,0,0-3.15,2.36,11.24,11.24,0,0,0-2.08,4,17.86,17.86,0,0,0-.76,5.41q0,6.13,2.86,9.43a9.1,9.1,0,0,0,7.21,3.31,9.92,9.92,0,0,0,3.68-.75,18.65,18.65,0,0,0-2.84-1.7,18.67,18.67,0,0,1-2.34-1.3,1.54,1.54,0,0,1-.63-1.31,1.67,1.67,0,0,1,.61-1.28,1.87,1.87,0,0,1,1.33-.56Q428.82,379.51,434,383.19Z" transform="translate(-116.6 -280.39)"/></svg>